# File produced by Open Asset Import Library (http://www.assimp.sf.net)
# (assimp v3.1.187496374)

mtllib bar.obj.mtl

# 78 vertex positions
v  2.9946 1.62721 60
v  3 1.5 60
v  3 1.5 0
v  2.9946 1.37279 0
v  2.9946 1.37279 60
v  2.9516 1.12203 60
v  2.9516 1.12203 0
v  2.86684 0.882148 60
v  2.86684 0.882148 0
v  2.74276 0.660038 60
v  2.74276 0.660038 0
v  2.58293 0.462092 60
v  2.58293 0.462092 0
v  2.39195 0.294004 60
v  2.39195 0.294004 0
v  2.17531 0.160611 60
v  2.17531 0.160611 0
v  1.93923 0.0657499 60
v  1.93923 0.0657499 0
v  1.69053 0.0121493 60
v  1.69053 0.0121493 0
v  1.43634 0.00135158 60
v  1.43634 0.00135158 0
v  1.18398 0.0336672 60
v  1.18398 0.0336672 0
v  0.940715 0.108166 60
v  0.940715 0.108166 0
v  0.713539 0.222706 60
v  0.713539 0.222706 0
v  0.508988 0.373992 60
v  0.508988 0.373992 0
v  0.332946 0.55767 60
v  0.332946 0.55767 0
v  0.190479 0.768458 60
v  0.190479 0.768458 0
v  0.0856839 1.00029 60
v  0.0856839 1.00029 0
v  0.0215762 1.2465 60
v  0.0215762 1.2465 0
v  0 1.5 60
v  0 1.5 0
v  0.0215762 1.7535 60
v  0.0215762 1.7535 0
v  0.0856839 1.99971 60
v  0.0856839 1.99971 0
v  0.190479 2.23154 60
v  0.190479 2.23154 0
v  0.332946 2.44233 60
v  0.332946 2.44233 0
v  0.508988 2.62601 60
v  0.508988 2.62601 0
v  0.713539 2.77729 60
v  0.713539 2.77729 0
v  0.940715 2.89183 60
v  0.940715 2.89183 0
v  1.18398 2.96633 60
v  1.18398 2.96633 0
v  1.43634 2.99865 60
v  1.43634 2.99865 0
v  1.69053 2.98785 60
v  1.69053 2.98785 0
v  1.93923 2.93425 60
v  1.93923 2.93425 0
v  2.17531 2.83939 60
v  2.17531 2.83939 0
v  2.39195 2.706 60
v  2.39195 2.706 0
v  2.58293 2.53791 60
v  2.58293 2.53791 0
v  2.74276 2.33996 60
v  2.74276 2.33996 0
v  2.86684 2.11785 60
v  2.86684 2.11785 0
v  2.9516 1.87797 60
v  2.9516 1.87797 0
v  2.9946 1.62721 0
v  1.5 1.5 60
v  1.5 1.5 0

# 0 UV coordinates

# 78 vertex normals
vn 0.9996 0.0282913 0
vn 0.9996 -0.0282913 0
vn 0.998398 -0.0565826 0
vn 0.990012 -0.140981 0
vn 0.980427 -0.196884 0
vn 0.951946 -0.306266 0
vn 0.933051 -0.359745 0
vn 0.886494 -0.462741 0
vn 0.858832 -0.512257 0
vn 0.795539 -0.605903 0
vn 0.759907 -0.650032 0
vn 0.681698 -0.731634 0
vn 0.63912 -0.769107 0
vn 0.548245 -0.836318 0
vn 0.499947 -0.866056 0
vn 0.399021 -0.916942 0
vn 0.346392 -0.93809 0
vn 0.238317 -0.971187 0
vn 0.182872 -0.983137 0
vn 0.070758 -0.997494 0
vn 0.0140902 -0.999901 0
vn -0.098837 -0.995104 0
vn -0.155096 -0.987899 0
vn -0.265589 -0.964086 0
vn -0.319821 -0.947478 0
vn -0.4247 -0.905334 0
vn -0.475346 -0.879799 0
vn -0.571593 -0.820537 0
vn -0.617195 -0.78681 0
vn -0.702043 -0.712135 0
vn -0.741289 -0.671186 0
vn -0.812296 -0.583246 0
vn -0.844057 -0.536254 0
vn -0.899181 -0.437577 0
vn -0.922543 -0.385894 0
vn -0.960198 -0.279321 0
vn -0.97449 -0.224432 0
vn -0.993592 -0.113029 0
vn -0.998402 -0.0565145 0
vn -0.998402 0.0565145 0
vn -0.993592 0.113029 0
vn -0.97449 0.224432 0
vn -0.960198 0.279321 0
vn -0.922543 0.385894 0
vn -0.899181 0.437577 0
vn -0.844057 0.536254 0
vn -0.812296 0.583246 0
vn -0.741289 0.671186 0
vn -0.702043 0.712135 0
vn -0.617195 0.78681 0
vn -0.571593 0.820537 0
vn -0.475346 0.879799 0
vn -0.4247 0.905334 0
vn -0.319821 0.947478 0
vn -0.265589 0.964086 0
vn -0.155096 0.987899 0
vn -0.098837 0.995104 0
vn 0.0140902 0.999901 0
vn 0.070758 0.997494 0
vn 0.182872 0.983137 0
vn 0.238317 0.971187 0
vn 0.346392 0.93809 0
vn 0.399021 0.916942 0
vn 0.499947 0.866056 0
vn 0.548245 0.836318 0
vn 0.63912 0.769107 0
vn 0.681698 0.731634 0
vn 0.759907 0.650032 0
vn 0.795539 0.605903 0
vn 0.858832 0.512257 0
vn 0.886494 0.462741 0
vn 0.933051 0.359745 0
vn 0.951946 0.306266 0
vn 0.980427 0.196884 0
vn 0.990012 0.140981 0
vn 0.998398 0.0565826 0
vn 0 0 1
vn 0 0 -1

# Mesh '<STL_BINARY>' with 152 faces
g <STL_BINARY>
usemtl DefaultMaterial
f  1//1 2//1 3//1
f  3//2 2//2 4//2
f  2//3 5//3 4//3
f  4//4 5//4 6//4
f  4//5 6//5 7//5
f  7//6 6//6 8//6
f  7//7 8//7 9//7
f  9//8 8//8 10//8
f  9//9 10//9 11//9
f  11//10 10//10 12//10
f  11//11 12//11 13//11
f  13//12 12//12 14//12
f  13//13 14//13 15//13
f  15//14 14//14 16//14
f  15//15 16//15 17//15
f  17//16 16//16 18//16
f  17//17 18//17 19//17
f  19//18 18//18 20//18
f  19//19 20//19 21//19
f  21//20 20//20 22//20
f  21//21 22//21 23//21
f  23//22 22//22 24//22
f  23//23 24//23 25//23
f  25//24 24//24 26//24
f  25//25 26//25 27//25
f  27//26 26//26 28//26
f  27//27 28//27 29//27
f  29//28 28//28 30//28
f  29//29 30//29 31//29
f  31//30 30//30 32//30
f  31//31 32//31 33//31
f  33//32 32//32 34//32
f  33//33 34//33 35//33
f  35//34 34//34 36//34
f  35//35 36//35 37//35
f  37//36 36//36 38//36
f  37//37 38//37 39//37
f  39//38 38//38 40//38
f  39//39 40//39 41//39
f  41//40 40//40 42//40
f  41//41 42//41 43//41
f  43//42 42//42 44//42
f  43//43 44//43 45//43
f  45//44 44//44 46//44
f  45//45 46//45 47//45
f  47//46 46//46 48//46
f  47//47 48//47 49//47
f  49//48 48//48 50//48
f  49//49 50//49 51//49
f  51//50 50//50 52//50
f  51//51 52//51 53//51
f  53//52 52//52 54//52
f  53//53 54//53 55//53
f  55//54 54//54 56//54
f  55//55 56//55 57//55
f  57//56 56//56 58//56
f  57//57 58//57 59//57
f  59//58 58//58 60//58
f  59//59 60//59 61//59
f  61//60 60//60 62//60
f  61//61 62//61 63//61
f  63//62 62//62 64//62
f  63//63 64//63 65//63
f  65//64 64//64 66//64
f  65//65 66//65 67//65
f  67//66 66//66 68//66
f  67//67 68//67 69//67
f  69//68 68//68 70//68
f  69//69 70//69 71//69
f  71//70 70//70 72//70
f  71//71 72//71 73//71
f  73//72 72//72 74//72
f  73//73 74//73 75//73
f  75//74 74//74 1//74
f  75//75 1//75 76//75
f  76//76 1//76 3//76
f  2//77 1//77 77//77
f  2//77 77//77 5//77
f  1//77 74//77 77//77
f  77//77 74//77 72//77
f  77//77 72//77 70//77
f  70//77 68//77 77//77
f  77//77 68//77 66//77
f  77//77 66//77 64//77
f  64//77 62//77 77//77
f  77//77 62//77 60//77
f  77//77 60//77 58//77
f  58//77 56//77 77//77
f  77//77 56//77 54//77
f  77//77 54//77 52//77
f  52//77 50//77 77//77
f  77//77 50//77 48//77
f  77//77 48//77 46//77
f  46//77 44//77 77//77
f  77//77 44//77 42//77
f  77//77 42//77 40//77
f  40//77 38//77 77//77
f  77//77 38//77 36//77
f  77//77 36//77 34//77
f  34//77 32//77 77//77
f  77//77 32//77 30//77
f  77//77 30//77 28//77
f  28//77 26//77 77//77
f  77//77 26//77 24//77
f  77//77 24//77 22//77
f  22//77 20//77 77//77
f  77//77 20//77 18//77
f  77//77 18//77 16//77
f  16//77 14//77 77//77
f  77//77 14//77 12//77
f  77//77 12//77 10//77
f  10//77 8//77 77//77
f  77//77 8//77 6//77
f  77//77 6//77 5//77
f  3//78 4//78 78//78
f  3//78 78//78 76//78
f  4//78 7//78 78//78
f  78//78 7//78 9//78
f  78//78 9//78 11//78
f  11//78 13//78 78//78
f  78//78 13//78 15//78
f  78//78 15//78 17//78
f  17//78 19//78 78//78
f  78//78 19//78 21//78
f  78//78 21//78 23//78
f  23//78 25//78 78//78
f  78//78 25//78 27//78
f  78//78 27//78 29//78
f  29//78 31//78 78//78
f  78//78 31//78 33//78
f  78//78 33//78 35//78
f  35//78 37//78 78//78
f  78//78 37//78 39//78
f  78//78 39//78 41//78
f  41//78 43//78 78//78
f  78//78 43//78 45//78
f  78//78 45//78 47//78
f  47//78 49//78 78//78
f  78//78 49//78 51//78
f  78//78 51//78 53//78
f  53//78 55//78 78//78
f  78//78 55//78 57//78
f  78//78 57//78 59//78
f  59//78 61//78 78//78
f  78//78 61//78 63//78
f  78//78 63//78 65//78
f  65//78 67//78 78//78
f  78//78 67//78 69//78
f  78//78 69//78 71//78
f  71//78 73//78 78//78
f  78//78 73//78 75//78
f  78//78 75//78 76//78

