# File produced by Open Asset Import Library (http://www.assimp.sf.net)
# (assimp v3.1.187496374)

mtllib Assemble - Hand_bar-4.obj.mtl

# 232 vertex positions
v  397.706 98.1358 223.717
v  397.747 98.3867 223.709
v  420.433 117.569 219.713
v  397.623 97.8957 223.733
v  397.746 98.6412 223.707
v  397.703 98.8918 223.713
v  397.582 97.0121 223.745
v  397.502 97.6732 223.755
v  419.563 117.633 219.861
v  419.795 117.729 219.821
v  420.106 117.943 219.767
v  420.658 117.808 219.673
v  420.008 117.863 219.784
v  397.345 97.4747 223.783
v  397.255 97.3863 223.799
v  397.158 97.306 223.816
v  397.322 96.8142 223.791
v  396.945 97.1719 223.853
v  397.033 96.6626 223.841
v  396.712 97.0763 223.893
v  396.723 96.5613 223.895
v  396.468 97.0219 223.936
v  396.401 96.5131 223.95
v  396.217 97.0102 223.979
v  396.075 96.5194 224.006
v  395.968 97.0417 224.021
v  395.755 96.58 224.06
v  395.728 97.1154 224.062
v  395.449 96.6932 224.112
v  395.504 97.2292 224.1
v  395.166 96.8559 224.16
v  395.301 97.3798 224.133
v  394.912 97.0637 224.202
v  395.127 97.5629 224.162
v  394.696 97.3109 224.237
v  394.986 97.7732 224.185
v  394.523 97.5909 224.265
v  394.882 98.0047 224.202
v  394.398 97.8958 224.285
v  394.817 98.2507 224.211
v  394.324 98.2175 224.296
v  394.795 98.5041 224.214
v  394.303 98.5472 224.298
v  394.815 98.7577 224.209
v  394.335 98.8758 224.29
v  394.877 99.0041 224.197
v  394.421 99.1944 224.274
v  394.98 99.2363 224.178
v  394.557 99.4943 224.249
v  395.119 99.4475 224.153
v  394.74 99.7673 224.216
v  395.292 99.6318 224.122
v  394.965 100.006 224.176
v  395.493 99.7837 224.087
v  417.816 120.563 220.144
v  395.956 99.9743 224.006
v  395.716 99.899 224.048
v  396.204 100.007 223.964
v  396.455 99.9975 223.921
v  396.7 99.9447 223.879
v  396.934 99.8506 223.84
v  397.148 99.7179 223.804
v  397.337 99.5505 223.772
v  418.143 120.189 220.09
v  417.97 120.004 220.121
v  418.344 120.341 220.055
v  417.831 119.793 220.146
v  417.728 119.561 220.165
v  417.666 119.315 220.177
v  417.646 119.061 220.182
v  417.668 118.808 220.179
v  417.732 118.562 220.17
v  417.837 118.33 220.153
v  417.978 118.12 220.13
v  397.495 99.3531 223.746
v  418.152 117.937 220.101
v  397.618 99.1314 223.726
v  418.354 117.786 220.068
v  418.579 117.672 220.03
v  418.819 117.599 219.989
v  419.068 117.567 219.947
v  419.318 117.579 219.904
v  418.076 120.761 220.098
v  418.567 120.456 220.016
v  418.365 120.912 220.048
v  418.807 120.531 219.974
v  418.675 121.014 219.994
v  419.055 120.564 219.932
v  418.997 121.062 219.939
v  419.306 120.554 219.889
v  419.323 121.056 219.883
v  419.551 120.502 219.847
v  419.643 120.995 219.829
v  419.784 120.408 219.808
v  419.949 120.882 219.777
v  419.998 120.275 219.772
v  420.232 120.719 219.729
v  420.187 120.107 219.74
v  420.485 120.511 219.687
v  420.346 119.91 219.714
v  420.702 120.264 219.651
v  420.469 119.688 219.695
v  420.875 119.984 219.623
v  420.553 119.449 219.681
v  421 119.679 219.604
v  420.597 119.198 219.675
v  421.074 119.358 219.593
v  420.598 118.944 219.677
v  421.095 119.028 219.591
v  420.557 118.693 219.685
v  421.062 118.699 219.599
v  420.474 118.453 219.701
v  420.977 118.381 219.615
v  420.353 118.23 219.723
v  420.841 118.081 219.64
v  420.196 118.032 219.751
v  396.462 99.9913 226.963
v  396.711 100.024 226.92
v  418.322 120.58 223.101
v  396.223 99.916 227.005
v  396.962 100.014 226.878
v  397.207 99.9617 226.836
v  395.471 100.023 227.133
v  418.235 119.578 223.122
v  418.337 119.81 223.103
v  418.477 120.021 223.078
v  418.649 120.206 223.047
v  418.583 120.778 223.055
v  395.999 99.8007 227.044
v  395.798 99.6487 227.079
v  395.247 99.7843 227.173
v  395.626 99.4645 227.11
v  395.064 99.5112 227.206
v  395.486 99.2532 227.135
v  394.927 99.2113 227.231
v  395.384 99.0211 227.154
v  394.842 98.8927 227.247
v  395.322 98.7747 227.166
v  394.809 98.5641 227.255
v  395.302 98.5211 227.171
v  394.83 98.2345 227.253
v  395.324 98.2677 227.168
v  394.904 97.9128 227.242
v  395.388 98.0217 227.159
v  395.03 97.6078 227.222
v  395.492 97.7902 227.142
v  395.203 97.3279 227.194
v  395.634 97.5799 227.119
v  395.419 97.0807 227.159
v  395.808 97.3968 227.09
v  395.672 96.8729 227.116
v  396.01 97.2462 227.056
v  395.956 96.7101 227.069
v  396.235 97.1324 227.019
v  396.262 96.597 227.017
v  396.475 97.0587 226.978
v  396.582 96.5364 226.963
v  396.724 97.0272 226.936
v  396.907 96.5301 226.907
v  396.974 97.0388 226.893
v  397.229 96.5782 226.851
v  397.219 97.0932 226.85
v  397.539 96.6795 226.798
v  397.451 97.1889 226.81
v  397.828 96.8312 226.747
v  397.664 97.323 226.773
v  398.089 97.029 226.702
v  397.762 97.4033 226.756
v  420.939 117.586 222.67
v  398.13 97.9127 226.69
v  398.008 97.6901 226.712
v  397.852 97.4917 226.74
v  398.212 98.1528 226.674
v  398.254 98.4037 226.666
v  398.253 98.6581 226.664
v  398.209 98.9087 226.67
v  398.125 99.1483 226.683
v  398.001 99.37 226.703
v  420.515 117.88 222.741
v  397.843 99.5675 226.729
v  420.612 117.96 222.724
v  420.302 117.746 222.778
v  420.702 118.049 222.708
v  421.164 117.825 222.63
v  420.859 118.247 222.68
v  421.347 118.098 222.597
v  420.981 118.47 222.658
v  421.483 118.398 222.572
v  421.063 118.71 222.642
v  421.569 118.716 222.555
v  421.104 118.961 222.634
v  421.602 119.045 222.548
v  421.103 119.215 222.632
v  421.581 119.374 222.55
v  421.06 119.466 222.638
v  421.507 119.696 222.561
v  420.975 119.705 222.651
v  421.381 120.001 222.58
v  420.852 119.927 222.671
v  421.208 120.281 222.608
v  420.694 120.124 222.697
v  420.992 120.528 222.644
v  420.505 120.292 222.729
v  420.739 120.736 222.686
v  420.291 120.425 222.765
v  420.455 120.899 222.734
v  420.058 120.519 222.804
v  420.149 121.012 222.785
v  419.812 120.571 222.846
v  419.829 121.073 222.84
v  419.562 120.581 222.889
v  419.504 121.079 222.896
v  419.313 120.548 222.931
v  419.181 121.031 222.951
v  419.074 120.473 222.973
v  418.872 120.929 223.005
v  418.85 120.358 223.012
v  420.07 117.65 222.818
v  419.825 117.596 222.861
v  419.574 117.584 222.904
v  419.325 117.616 222.946
v  419.085 117.689 222.987
v  418.861 117.803 223.025
v  418.659 117.954 223.058
v  397.654 99.7349 226.761
v  418.484 118.137 223.087
v  397.44 99.8676 226.796
v  418.343 118.347 223.11
v  418.239 118.579 223.127
v  418.175 118.825 223.136
v  418.152 119.078 223.139
v  418.172 119.332 223.134

# 0 UV coordinates

# 156 vertex normals
vn -0.168822 -0.00565666 -0.98563
vn 0.168822 0.00565666 0.98563
vn -0.612777 0.783845 0.10046
vn -0.569228 0.816925 0.0928111
vn -0.47735 0.875356 0.0767386
vn -0.429022 0.900707 0.0683152
vn -0.328903 0.94299 0.0509238
vn -0.277113 0.959921 0.0419558
vn -0.171484 0.984901 0.0237199
vn -0.117645 0.992951 0.014452
vn -0.00938696 0.999947 -0.00413099
vn 0.045032 0.998895 -0.013446
vn 0.152966 0.987717 -0.0318692
vn 0.206481 0.977592 -0.0409773
vn 0.311146 0.948545 -0.0587381
vn 0.362297 0.929623 -0.0673908
vn 0.460839 0.883499 -0.0840048
vn 0.508231 0.856297 -0.091966
vn 0.597961 0.794353 -0.10698
vn 0.640301 0.759613 -0.114033
vn 0.718773 0.68354 -0.127037
vn 0.754906 0.642208 -0.132989
vn 0.819979 0.554081 -0.143629
vn 0.848919 0.507286 -0.148317
vn 0.898817 0.409508 -0.156303
vn 0.919775 0.358526 -0.1596
vn 0.953138 0.253765 -0.164714
vn 0.965543 0.199987 -0.16653
vn 0.98146 0.0911005 -0.168631
vn 0.984973 0.0359926 -0.168916
vn 0.983011 -0.0740496 -0.167949
vn 0.977536 -0.128984 -0.166696
vn 0.957747 -0.23718 -0.162685
vn 0.943434 -0.290442 -0.159928
vn 0.906358 -0.39384 -0.152984
vn 0.883597 -0.443977 -0.148798
vn 0.830247 -0.539758 -0.13911
vn 0.799658 -0.585402 -0.133609
vn 0.731488 -0.670952 -0.121441
vn 0.693907 -0.710858 -0.114775
vn 0.654333 -0.748486 -0.107781
vn 0.612777 -0.783845 -0.10046
vn 0.569228 -0.816925 -0.0928111
vn 0.47735 -0.875356 -0.0767386
vn 0.429022 -0.900707 -0.0683152
vn 0.328903 -0.94299 -0.0509238
vn 0.277113 -0.959921 -0.0419558
vn 0.171484 -0.984901 -0.0237199
vn 0.117645 -0.992951 -0.014452
vn 0.00938696 -0.999947 0.00413099
vn -0.045032 -0.998895 0.013446
vn -0.152966 -0.987717 0.0318692
vn -0.206481 -0.977592 0.0409773
vn -0.311146 -0.948545 0.0587381
vn -0.362297 -0.929623 0.0673908
vn -0.460839 -0.883499 0.0840048
vn -0.508231 -0.856297 0.091966
vn -0.597961 -0.794353 0.10698
vn -0.640301 -0.759613 0.114033
vn -0.718773 -0.68354 0.127037
vn -0.754906 -0.642208 0.132989
vn -0.819979 -0.554081 0.143629
vn -0.848919 -0.507286 0.148317
vn -0.898817 -0.409508 0.156303
vn -0.919775 -0.358526 0.1596
vn -0.953138 -0.253765 0.164714
vn -0.965543 -0.199987 0.16653
vn -0.98146 -0.0911005 0.168631
vn -0.984973 -0.0359926 0.168916
vn -0.983011 0.0740496 0.167949
vn -0.977536 0.128984 0.166696
vn -0.957747 0.23718 0.162685
vn -0.943434 0.290442 0.159928
vn -0.906358 0.39384 0.152984
vn -0.883597 0.443977 0.148798
vn -0.830247 0.539758 0.13911
vn -0.799658 0.585402 0.133609
vn -0.731488 0.670952 0.121441
vn -0.693907 0.710858 0.114775
vn -0.654333 0.748486 0.107781
vn 0.694946 -0.709813 -0.114959
vn 0.733456 -0.668737 -0.121791
vn 0.803075 -0.580564 -0.134222
vn 0.834183 -0.533469 -0.13982
vn 0.888101 -0.434614 -0.149623
vn 0.910911 -0.382855 -0.153827
vn 0.947578 -0.276161 -0.16072
vn 0.961435 -0.221226 -0.163409
vn 0.979795 -0.109763 -0.167193
vn 0.984299 -0.0532333 -0.168289
vn 0.983825 0.0597934 -0.168856
vn 0.978847 0.116291 -0.168328
vn 0.959553 0.227629 -0.165662
vn 0.945236 0.28247 -0.163525
vn 0.907675 0.388916 -0.157702
vn 0.884431 0.440522 -0.154017
vn 0.829686 0.539015 -0.145205
vn 0.798184 0.585902 -0.140078
vn 0.727828 0.673607 -0.128531
vn 0.688974 0.714426 -0.12211
vn 0.605031 0.788821 -0.108159
vn 0.559943 0.822398 -0.100629
vn 0.464829 0.881342 -0.0846758
vn 0.414804 0.90671 -0.0762529
vn 0.311255 0.948508 -0.0587565
vn 0.257732 0.964938 -0.0496831
vn 0.148727 0.988388 -0.0311469
vn 0.0932448 0.995407 -0.0216841
vn -0.0180806 0.999833 -0.00264125
vn -0.0739244 0.99724 0.00693876
vn -0.184368 0.982515 0.0259404
vn -0.238967 0.970384 0.035362
vn -0.345351 0.936932 0.0537758
vn -0.397135 0.915611 0.062768
vn -0.496399 0.864395 0.0800641
vn -0.543878 0.834499 0.0883682
vn -0.611577 0.784808 0.100249
vn -0.633218 0.766947 0.104058
vn -0.674926 0.729425 0.111418
vn -0.694993 0.709765 0.114968
vn -0.751718 0.647522 0.125041
vn -0.786654 0.603276 0.131279
vn -0.848645 0.509425 0.142436
vn -0.875702 0.459818 0.147355
vn -0.921158 0.356672 0.155732
vn -0.939558 0.303132 0.159191
vn -0.967171 0.193659 0.164549
vn -0.976384 0.137726 0.166448
vn -0.98536 0.0250749 0.168632
vn -0.985122 -0.0316428 0.168917
vn -0.975202 -0.144231 0.167864
vn -0.96552 -0.200101 0.166526
vn -0.936989 -0.309387 0.162267
vn -0.918141 -0.362803 0.159345
vn -0.871821 -0.465643 0.152001
vn -0.844349 -0.515068 0.147579
vn -0.781572 -0.608503 0.137363
vn -0.746267 -0.652515 0.131568
vn -0.668839 -0.733858 0.118773
vn -0.626716 -0.77119 0.111772
vn -0.536864 -0.838101 0.0967661
vn -0.489136 -0.86768 0.0887607
vn -0.389445 -0.918233 0.0719755
vn -0.337484 -0.939208 0.0631957
vn -0.230822 -0.971949 0.0451143
vn -0.176123 -0.983717 0.0358126
vn -0.0655591 -0.997705 0.0169552
vn -0.00969508 -0.999926 0.00739931
vn 0.10159 -0.994758 -0.0116917
vn 0.157011 -0.987369 -0.0212269
vn 0.265817 -0.963193 -0.0400022
vn 0.319201 -0.946407 -0.0492424
vn 0.422396 -0.90392 -0.0671619
vn 0.472208 -0.878219 -0.0758413
vn 0.566824 -0.818642 -0.0923895
vn 0.61163 -0.784766 -0.100258

# Mesh '<STL_BINARY>' with 468 faces
g <STL_BINARY>
usemtl DefaultMaterial
f  1//1 2//1 3//1
f  3//1 4//1 1//1
f  3//1 2//1 5//1
f  3//1 5//1 6//1
f  7//1 8//1 3//1
f  3//1 8//1 4//1
f  6//1 9//1 3//1
f  3//1 9//1 10//1
f  11//1 12//1 3//1
f  11//1 3//1 13//1
f  13//1 3//1 10//1
f  14//1 8//1 7//1
f  7//1 15//1 14//1
f  7//1 16//1 15//1
f  17//1 16//1 7//1
f  17//1 18//1 16//1
f  19//1 18//1 17//1
f  19//1 20//1 18//1
f  21//1 20//1 19//1
f  21//1 22//1 20//1
f  23//1 22//1 21//1
f  23//1 24//1 22//1
f  25//1 24//1 23//1
f  25//1 26//1 24//1
f  27//1 26//1 25//1
f  27//1 28//1 26//1
f  29//1 28//1 27//1
f  29//1 30//1 28//1
f  31//1 30//1 29//1
f  31//1 32//1 30//1
f  33//1 32//1 31//1
f  33//1 34//1 32//1
f  35//1 34//1 33//1
f  35//1 36//1 34//1
f  37//1 36//1 35//1
f  37//1 38//1 36//1
f  39//1 38//1 37//1
f  39//1 40//1 38//1
f  41//1 40//1 39//1
f  41//1 42//1 40//1
f  43//1 42//1 41//1
f  43//1 44//1 42//1
f  45//1 44//1 43//1
f  45//1 46//1 44//1
f  47//1 46//1 45//1
f  47//1 48//1 46//1
f  49//1 48//1 47//1
f  49//1 50//1 48//1
f  51//1 50//1 49//1
f  51//1 52//1 50//1
f  53//1 52//1 51//1
f  53//1 54//1 52//1
f  55//1 56//1 53//1
f  53//1 56//1 57//1
f  57//1 54//1 53//1
f  55//1 58//1 56//1
f  59//1 58//1 55//1
f  55//1 60//1 59//1
f  55//1 61//1 60//1
f  62//1 61//1 55//1
f  63//1 62//1 64//1
f  64//1 62//1 55//1
f  63//1 64//1 65//1
f  64//1 55//1 66//1
f  65//1 67//1 63//1
f  63//1 67//1 68//1
f  63//1 68//1 69//1
f  69//1 70//1 63//1
f  63//1 70//1 71//1
f  63//1 71//1 72//1
f  72//1 73//1 63//1
f  63//1 73//1 74//1
f  63//1 74//1 75//1
f  75//1 74//1 76//1
f  75//1 76//1 77//1
f  76//1 78//1 6//1
f  77//1 76//1 6//1
f  78//1 79//1 6//1
f  6//1 79//1 80//1
f  6//1 80//1 81//1
f  81//1 82//1 6//1
f  6//1 82//1 9//1
f  66//1 55//1 83//1
f  66//1 83//1 84//1
f  84//1 83//1 85//1
f  84//1 85//1 86//1
f  86//1 85//1 87//1
f  86//1 87//1 88//1
f  88//1 87//1 89//1
f  88//1 89//1 90//1
f  90//1 89//1 91//1
f  90//1 91//1 92//1
f  92//1 91//1 93//1
f  92//1 93//1 94//1
f  94//1 93//1 95//1
f  94//1 95//1 96//1
f  96//1 95//1 97//1
f  96//1 97//1 98//1
f  98//1 97//1 99//1
f  98//1 99//1 100//1
f  100//1 99//1 101//1
f  100//1 101//1 102//1
f  102//1 101//1 103//1
f  102//1 103//1 104//1
f  104//1 103//1 105//1
f  104//1 105//1 106//1
f  106//1 105//1 107//1
f  106//1 107//1 108//1
f  108//1 107//1 109//1
f  108//1 109//1 110//1
f  110//1 109//1 111//1
f  110//1 111//1 112//1
f  112//1 111//1 113//1
f  112//1 113//1 114//1
f  114//1 113//1 115//1
f  114//1 115//1 116//1
f  116//1 115//1 12//1
f  116//1 12//1 11//1
f  117//2 118//2 119//2
f  117//2 119//2 120//2
f  119//2 118//2 121//2
f  119//2 121//2 122//2
f  120//2 119//2 123//2
f  122//2 124//2 119//2
f  119//2 124//2 125//2
f  125//2 126//2 119//2
f  119//2 126//2 127//2
f  119//2 127//2 128//2
f  120//2 123//2 129//2
f  123//2 130//2 129//2
f  131//2 132//2 123//2
f  123//2 132//2 130//2
f  133//2 134//2 131//2
f  131//2 134//2 132//2
f  135//2 136//2 133//2
f  133//2 136//2 134//2
f  137//2 138//2 135//2
f  135//2 138//2 136//2
f  139//2 140//2 137//2
f  137//2 140//2 138//2
f  141//2 142//2 139//2
f  139//2 142//2 140//2
f  143//2 144//2 141//2
f  141//2 144//2 142//2
f  145//2 146//2 143//2
f  143//2 146//2 144//2
f  147//2 148//2 145//2
f  145//2 148//2 146//2
f  149//2 150//2 147//2
f  147//2 150//2 148//2
f  151//2 152//2 149//2
f  149//2 152//2 150//2
f  153//2 154//2 151//2
f  151//2 154//2 152//2
f  155//2 156//2 153//2
f  153//2 156//2 154//2
f  157//2 158//2 155//2
f  155//2 158//2 156//2
f  159//2 160//2 157//2
f  157//2 160//2 158//2
f  161//2 162//2 159//2
f  159//2 162//2 160//2
f  163//2 164//2 161//2
f  161//2 164//2 162//2
f  165//2 166//2 163//2
f  163//2 166//2 164//2
f  167//2 168//2 165//2
f  165//2 168//2 166//2
f  169//2 170//2 167//2
f  167//2 170//2 171//2
f  171//2 172//2 167//2
f  167//2 172//2 168//2
f  169//2 173//2 170//2
f  174//2 173//2 169//2
f  169//2 175//2 174//2
f  169//2 176//2 175//2
f  177//2 176//2 169//2
f  177//2 169//2 178//2
f  178//2 169//2 179//2
f  178//2 179//2 180//2
f  169//2 181//2 179//2
f  180//2 179//2 182//2
f  169//2 183//2 181//2
f  184//2 183//2 169//2
f  184//2 185//2 183//2
f  186//2 185//2 184//2
f  186//2 187//2 185//2
f  188//2 187//2 186//2
f  188//2 189//2 187//2
f  190//2 189//2 188//2
f  190//2 191//2 189//2
f  192//2 191//2 190//2
f  192//2 193//2 191//2
f  194//2 193//2 192//2
f  194//2 195//2 193//2
f  196//2 195//2 194//2
f  196//2 197//2 195//2
f  198//2 197//2 196//2
f  198//2 199//2 197//2
f  200//2 199//2 198//2
f  200//2 201//2 199//2
f  202//2 201//2 200//2
f  202//2 203//2 201//2
f  204//2 203//2 202//2
f  204//2 205//2 203//2
f  206//2 205//2 204//2
f  206//2 207//2 205//2
f  208//2 207//2 206//2
f  208//2 209//2 207//2
f  210//2 209//2 208//2
f  210//2 211//2 209//2
f  212//2 211//2 210//2
f  212//2 213//2 211//2
f  214//2 213//2 212//2
f  214//2 215//2 213//2
f  216//2 215//2 214//2
f  216//2 217//2 215//2
f  128//2 217//2 216//2
f  128//2 127//2 217//2
f  180//2 182//2 218//2
f  218//2 219//2 180//2
f  219//2 220//2 180//2
f  180//2 220//2 221//2
f  180//2 221//2 222//2
f  222//2 223//2 180//2
f  180//2 223//2 224//2
f  180//2 224//2 225//2
f  225//2 224//2 226//2
f  225//2 226//2 227//2
f  226//2 228//2 122//2
f  227//2 226//2 122//2
f  122//2 228//2 229//2
f  122//2 230//2 231//2
f  122//2 229//2 230//2
f  231//2 232//2 122//2
f  122//2 232//2 124//2
f  55//3 119//3 128//3
f  55//4 128//4 83//4
f  83//5 128//5 216//5
f  83//6 216//6 85//6
f  85//7 216//7 214//7
f  85//8 214//8 87//8
f  87//9 214//9 212//9
f  87//10 212//10 89//10
f  89//11 212//11 210//11
f  89//12 210//12 91//12
f  91//13 210//13 208//13
f  91//14 208//14 93//14
f  93//15 208//15 206//15
f  93//16 206//16 95//16
f  95//17 206//17 204//17
f  95//18 204//18 97//18
f  97//19 204//19 202//19
f  97//20 202//20 99//20
f  99//21 202//21 200//21
f  99//22 200//22 101//22
f  101//23 200//23 198//23
f  101//24 198//24 103//24
f  103//25 198//25 196//25
f  103//26 196//26 105//26
f  105//27 196//27 194//27
f  105//28 194//28 107//28
f  107//29 194//29 192//29
f  107//30 192//30 109//30
f  109//31 192//31 190//31
f  109//32 190//32 111//32
f  111//33 190//33 188//33
f  111//34 188//34 113//34
f  113//35 188//35 186//35
f  113//36 186//36 115//36
f  115//37 186//37 184//37
f  115//38 184//38 12//38
f  12//39 184//39 169//39
f  12//40 169//40 3//40
f  7//41 3//41 167//41
f  167//41 3//41 169//41
f  7//42 167//42 165//42
f  7//43 165//43 17//43
f  17//44 165//44 163//44
f  17//45 163//45 19//45
f  19//46 163//46 161//46
f  19//47 161//47 21//47
f  21//48 161//48 159//48
f  21//49 159//49 23//49
f  23//50 159//50 157//50
f  23//51 157//51 25//51
f  25//52 157//52 155//52
f  25//53 155//53 27//53
f  27//54 155//54 153//54
f  27//55 153//55 29//55
f  29//56 153//56 151//56
f  29//57 151//57 31//57
f  31//58 151//58 149//58
f  31//59 149//59 33//59
f  33//60 149//60 147//60
f  33//61 147//61 35//61
f  35//62 147//62 145//62
f  35//63 145//63 37//63
f  37//64 145//64 143//64
f  37//65 143//65 39//65
f  39//66 143//66 141//66
f  39//67 141//67 41//67
f  41//68 141//68 139//68
f  41//69 139//69 43//69
f  43//70 139//70 137//70
f  43//71 137//71 45//71
f  45//72 137//72 135//72
f  45//73 135//73 47//73
f  47//74 135//74 133//74
f  47//75 133//75 49//75
f  49//76 133//76 131//76
f  49//77 131//77 51//77
f  51//78 131//78 123//78
f  51//79 123//79 53//79
f  55//80 53//80 119//80
f  119//80 53//80 123//80
f  64//81 127//81 65//81
f  65//82 127//82 126//82
f  65//83 126//83 67//83
f  67//84 126//84 125//84
f  67//85 125//85 68//85
f  68//86 125//86 124//86
f  68//87 124//87 69//87
f  69//88 124//88 232//88
f  69//89 232//89 70//89
f  70//90 232//90 231//90
f  70//91 231//91 71//91
f  71//92 231//92 230//92
f  71//93 230//93 72//93
f  72//94 230//94 229//94
f  72//95 229//95 73//95
f  73//96 229//96 228//96
f  73//97 228//97 74//97
f  74//98 228//98 226//98
f  74//99 226//99 76//99
f  76//100 226//100 224//100
f  76//101 224//101 78//101
f  78//102 224//102 223//102
f  78//103 223//103 79//103
f  79//104 223//104 222//104
f  79//105 222//105 80//105
f  80//106 222//106 221//106
f  80//107 221//107 81//107
f  81//108 221//108 220//108
f  81//109 220//109 82//109
f  82//110 220//110 219//110
f  82//111 219//111 9//111
f  9//112 219//112 218//112
f  9//113 218//113 10//113
f  10//114 218//114 182//114
f  10//115 182//115 13//115
f  13//116 182//116 179//116
f  13//117 179//117 11//117
f  11//118 179//118 181//118
f  11//119 181//119 116//119
f  116//120 181//120 183//120
f  116//121 183//121 114//121
f  114//122 183//122 185//122
f  114//123 185//123 112//123
f  112//124 185//124 187//124
f  112//125 187//125 110//125
f  110//126 187//126 189//126
f  110//127 189//127 108//127
f  108//128 189//128 191//128
f  108//129 191//129 106//129
f  106//130 191//130 193//130
f  106//131 193//131 104//131
f  104//132 193//132 195//132
f  104//133 195//133 102//133
f  102//134 195//134 197//134
f  102//135 197//135 100//135
f  100//136 197//136 199//136
f  100//137 199//137 98//137
f  98//138 199//138 201//138
f  98//139 201//139 96//139
f  96//140 201//140 203//140
f  96//141 203//141 94//141
f  94//142 203//142 205//142
f  94//143 205//143 92//143
f  92//144 205//144 207//144
f  92//145 207//145 90//145
f  90//146 207//146 209//146
f  90//147 209//147 88//147
f  88//148 209//148 211//148
f  88//149 211//149 86//149
f  86//150 211//150 213//150
f  86//151 213//151 84//151
f  84//152 213//152 215//152
f  84//153 215//153 66//153
f  66//154 215//154 217//154
f  66//155 217//155 64//155
f  64//156 217//156 127//156
f  52//81 130//81 50//81
f  50//82 130//82 132//82
f  50//83 132//83 48//83
f  48//84 132//84 134//84
f  48//85 134//85 46//85
f  46//86 134//86 136//86
f  46//87 136//87 44//87
f  44//88 136//88 138//88
f  44//89 138//89 42//89
f  42//90 138//90 140//90
f  42//91 140//91 40//91
f  40//92 140//92 142//92
f  40//93 142//93 38//93
f  38//94 142//94 144//94
f  38//95 144//95 36//95
f  36//96 144//96 146//96
f  36//97 146//97 34//97
f  34//98 146//98 148//98
f  34//99 148//99 32//99
f  32//100 148//100 150//100
f  32//101 150//101 30//101
f  30//102 150//102 152//102
f  30//103 152//103 28//103
f  28//104 152//104 154//104
f  28//105 154//105 26//105
f  26//106 154//106 156//106
f  26//107 156//107 24//107
f  24//108 156//108 158//108
f  24//109 158//109 22//109
f  22//110 158//110 160//110
f  22//111 160//111 20//111
f  20//112 160//112 162//112
f  20//113 162//113 18//113
f  18//114 162//114 164//114
f  18//115 164//115 16//115
f  16//116 164//116 166//116
f  16//117 166//117 15//117
f  15//118 166//118 168//118
f  15//119 168//119 14//119
f  14//120 168//120 172//120
f  14//121 172//121 8//121
f  8//122 172//122 171//122
f  8//123 171//123 4//123
f  4//124 171//124 170//124
f  4//125 170//125 1//125
f  1//126 170//126 173//126
f  1//127 173//127 2//127
f  2//128 173//128 174//128
f  2//129 174//129 5//129
f  5//130 174//130 175//130
f  5//131 175//131 6//131
f  6//132 175//132 176//132
f  6//133 176//133 77//133
f  77//134 176//134 177//134
f  77//135 177//135 75//135
f  75//136 177//136 178//136
f  75//137 178//137 63//137
f  63//138 178//138 180//138
f  63//139 180//139 62//139
f  62//140 180//140 225//140
f  62//141 225//141 61//141
f  61//142 225//142 227//142
f  61//143 227//143 60//143
f  60//144 227//144 122//144
f  60//145 122//145 59//145
f  59//146 122//146 121//146
f  59//147 121//147 58//147
f  58//148 121//148 118//148
f  58//149 118//149 56//149
f  56//150 118//150 117//150
f  56//151 117//151 57//151
f  57//152 117//152 120//152
f  57//153 120//153 54//153
f  54//154 120//154 129//154
f  54//155 129//155 52//155
f  52//156 129//156 130//156

