# File produced by Open Asset Import Library (http://www.assimp.sf.net)
# (assimp v3.1.187496374)

mtllib Assemble - Hand_bar-1.obj.mtl

# 232 vertex positions
v  419.211 119.49 229.042
v  419.17 119.239 229.051
v  396.484 100.057 233.047
v  419.294 119.73 229.027
v  419.171 118.985 229.052
v  419.215 118.734 229.046
v  419.335 120.614 229.015
v  419.415 119.953 229.005
v  397.354 99.9927 232.898
v  397.122 99.8971 232.938
v  396.811 99.6827 232.993
v  396.259 99.8182 233.086
v  396.909 99.763 232.976
v  419.572 120.151 228.977
v  419.662 120.24 228.961
v  419.759 120.32 228.944
v  419.596 120.812 228.969
v  419.972 120.454 228.906
v  419.885 120.963 228.918
v  420.205 120.55 228.866
v  420.194 121.065 228.865
v  420.45 120.604 228.824
v  420.516 121.113 228.809
v  420.7 120.616 228.781
v  420.842 121.107 228.754
v  420.949 120.584 228.738
v  421.162 121.046 228.699
v  421.189 120.511 228.698
v  421.468 120.933 228.647
v  421.413 120.397 228.66
v  421.752 120.77 228.6
v  421.616 120.246 228.626
v  422.005 120.562 228.558
v  421.79 120.063 228.597
v  422.221 120.315 228.522
v  421.931 119.853 228.574
v  422.394 120.035 228.494
v  422.036 119.621 228.558
v  422.519 119.73 228.474
v  422.1 119.375 228.548
v  422.594 119.408 228.463
v  422.122 119.122 228.546
v  422.615 119.079 228.462
v  422.102 118.868 228.551
v  422.582 118.75 228.469
v  422.04 118.622 228.563
v  422.496 118.432 228.486
v  421.937 118.39 228.582
v  422.36 118.132 228.511
v  421.798 118.178 228.607
v  422.177 117.859 228.544
v  421.625 117.994 228.637
v  421.952 117.62 228.584
v  421.424 117.842 228.673
v  399.102 97.063 232.615
v  420.961 117.652 228.753
v  421.201 117.727 228.712
v  420.713 117.618 228.796
v  420.462 117.628 228.839
v  420.217 117.681 228.88
v  419.984 117.775 228.92
v  419.77 117.908 228.956
v  419.581 118.075 228.987
v  398.774 97.4372 232.669
v  398.947 97.6215 232.639
v  398.573 97.2853 232.705
v  399.087 97.8327 232.614
v  399.189 98.0649 232.595
v  399.251 98.3113 232.583
v  399.271 98.5649 232.578
v  399.249 98.8183 232.58
v  399.185 99.0643 232.59
v  399.081 99.2958 232.606
v  398.939 99.5061 232.629
v  419.422 118.273 229.013
v  398.765 99.6892 232.658
v  419.299 118.495 229.033
v  398.563 99.8398 232.692
v  398.338 99.9536 232.73
v  398.098 100.027 232.77
v  397.849 100.059 232.813
v  397.599 100.047 232.856
v  398.841 96.8651 232.661
v  398.35 97.17 232.744
v  398.552 96.7135 232.712
v  398.111 97.0947 232.785
v  398.242 96.6122 232.765
v  397.862 97.0615 232.828
v  397.92 96.564 232.821
v  397.611 97.0715 232.871
v  397.595 96.5703 232.876
v  397.366 97.1243 232.912
v  397.275 96.6309 232.931
v  397.133 97.2184 232.952
v  396.969 96.7441 232.983
v  396.919 97.3511 232.988
v  396.685 96.9068 233.03
v  396.73 97.5185 233.019
v  396.432 97.1146 233.072
v  396.572 97.7159 233.045
v  396.216 97.3618 233.108
v  396.448 97.9376 233.065
v  396.043 97.6418 233.136
v  396.364 98.1772 233.078
v  395.917 97.9467 233.156
v  396.32 98.4278 233.084
v  395.843 98.2684 233.167
v  396.319 98.6822 233.083
v  395.822 98.5981 233.168
v  396.361 98.9331 233.074
v  395.855 98.9267 233.161
v  396.443 99.1733 233.059
v  395.94 99.2453 233.144
v  396.565 99.3958 233.037
v  396.077 99.5452 233.119
v  396.721 99.5943 233.009
v  421.468 117.669 231.71
v  421.219 117.635 231.753
v  399.608 97.08 235.572
v  421.707 117.744 231.669
v  420.969 117.645 231.796
v  420.723 117.698 231.837
v  422.459 117.637 231.54
v  399.696 98.0819 235.552
v  399.593 97.8497 235.57
v  399.454 97.6385 235.596
v  399.281 97.4542 235.626
v  399.348 96.8821 235.618
v  421.931 117.859 231.63
v  422.132 118.011 231.594
v  422.684 117.876 231.501
v  422.304 118.195 231.564
v  422.867 118.149 231.468
v  422.444 118.407 231.539
v  423.003 118.449 231.443
v  422.546 118.639 231.52
v  423.088 118.767 231.426
v  422.608 118.885 231.508
v  423.121 119.096 231.419
v  422.629 119.139 231.503
v  423.1 119.425 231.42
v  422.606 119.392 231.505
v  423.026 119.747 231.431
v  422.542 119.638 231.515
v  422.901 120.052 231.451
v  422.438 119.87 231.531
v  422.727 120.332 231.479
v  422.297 120.08 231.554
v  422.511 120.579 231.515
v  422.122 120.263 231.583
v  422.258 120.787 231.557
v  421.92 120.414 231.617
v  421.975 120.95 231.604
v  421.696 120.527 231.655
v  421.669 121.063 231.656
v  421.455 120.601 231.695
v  421.348 121.123 231.711
v  421.207 120.633 231.738
v  421.023 121.13 231.766
v  420.956 120.621 231.781
v  420.701 121.082 231.822
v  420.711 120.567 231.823
v  420.391 120.98 231.875
v  420.479 120.471 231.863
v  420.102 120.829 231.926
v  420.266 120.337 231.901
v  419.841 120.631 231.972
v  420.169 120.257 231.918
v  396.991 100.074 236.003
v  419.8 119.747 231.984
v  419.922 119.97 231.962
v  420.078 120.168 231.934
v  419.718 119.507 231.999
v  419.676 119.256 232.008
v  419.678 119.002 232.009
v  419.721 118.751 232.003
v  419.806 118.512 231.99
v  419.929 118.29 231.97
v  397.415 99.78 235.932
v  420.087 118.092 231.944
v  397.318 99.6997 235.95
v  397.628 99.9141 235.895
v  397.228 99.6113 235.966
v  396.766 99.8352 236.043
v  397.071 99.4128 235.994
v  396.583 99.5622 236.076
v  396.95 99.1903 236.016
v  396.447 99.2622 236.101
v  396.867 98.9501 236.031
v  396.361 98.9436 236.118
v  396.826 98.6992 236.04
v  396.328 98.615 236.125
v  396.827 98.4448 236.041
v  396.349 98.2854 236.124
v  396.87 98.1942 236.035
v  396.424 97.9637 236.113
v  396.955 97.9546 236.022
v  396.549 97.6587 236.093
v  397.078 97.7329 236.002
v  396.722 97.3788 236.065
v  397.236 97.5355 235.976
v  396.938 97.1316 236.029
v  397.425 97.368 235.945
v  397.192 96.9238 235.987
v  397.639 97.2353 235.909
v  397.475 96.761 235.94
v  397.872 97.1413 235.869
v  397.781 96.6479 235.888
v  398.118 97.0885 235.828
v  398.101 96.5873 235.833
v  398.368 97.0785 235.785
v  398.427 96.581 235.778
v  398.617 97.1117 235.742
v  398.749 96.6292 235.722
v  398.856 97.187 235.7
v  399.059 96.7304 235.669
v  399.08 97.3022 235.662
v  397.86 100.01 235.855
v  398.105 100.064 235.813
v  398.356 100.076 235.77
v  398.605 100.044 235.727
v  398.845 99.9706 235.686
v  399.069 99.8568 235.649
v  399.271 99.7062 235.615
v  420.276 117.925 231.913
v  399.446 99.5231 235.586
v  420.49 117.792 231.877
v  399.587 99.3128 235.563
v  399.691 99.0813 235.547
v  399.756 98.8353 235.537
v  399.778 98.5818 235.535
v  399.758 98.3283 235.54

# 0 UV coordinates

# 156 vertex normals
vn -0.168822 -0.00565666 -0.98563
vn 0.168822 0.00565666 0.98563
vn 0.612777 -0.783845 -0.10046
vn 0.569228 -0.816925 -0.0928111
vn 0.47735 -0.875356 -0.0767386
vn 0.429022 -0.900707 -0.0683152
vn 0.328903 -0.94299 -0.0509238
vn 0.277113 -0.959921 -0.0419558
vn 0.171484 -0.984901 -0.0237199
vn 0.117645 -0.992951 -0.014452
vn 0.00938696 -0.999947 0.00413099
vn -0.045032 -0.998895 0.013446
vn -0.152966 -0.987717 0.0318692
vn -0.206481 -0.977592 0.0409773
vn -0.311146 -0.948545 0.0587381
vn -0.362297 -0.929623 0.0673908
vn -0.460839 -0.883499 0.0840048
vn -0.508231 -0.856297 0.091966
vn -0.597961 -0.794353 0.10698
vn -0.640301 -0.759613 0.114033
vn -0.718773 -0.68354 0.127037
vn -0.754906 -0.642208 0.132989
vn -0.819979 -0.554081 0.143629
vn -0.848919 -0.507286 0.148317
vn -0.898817 -0.409508 0.156303
vn -0.919775 -0.358526 0.1596
vn -0.953138 -0.253765 0.164714
vn -0.965543 -0.199987 0.16653
vn -0.98146 -0.0911005 0.168631
vn -0.984973 -0.0359926 0.168916
vn -0.983011 0.0740496 0.167949
vn -0.977536 0.128984 0.166696
vn -0.957747 0.23718 0.162685
vn -0.943434 0.290442 0.159928
vn -0.906358 0.39384 0.152984
vn -0.883597 0.443977 0.148798
vn -0.830247 0.539758 0.13911
vn -0.799658 0.585402 0.133609
vn -0.731488 0.670952 0.121441
vn -0.693907 0.710858 0.114775
vn -0.654333 0.748486 0.107781
vn -0.612777 0.783845 0.10046
vn -0.569228 0.816925 0.0928111
vn -0.47735 0.875356 0.0767386
vn -0.429022 0.900707 0.0683152
vn -0.328903 0.94299 0.0509238
vn -0.277113 0.959921 0.0419558
vn -0.171484 0.984901 0.0237199
vn -0.117645 0.992951 0.014452
vn -0.00938696 0.999947 -0.00413099
vn 0.045032 0.998895 -0.013446
vn 0.152966 0.987717 -0.0318692
vn 0.206481 0.977592 -0.0409773
vn 0.311146 0.948545 -0.0587381
vn 0.362297 0.929623 -0.0673908
vn 0.460839 0.883499 -0.0840048
vn 0.508231 0.856297 -0.091966
vn 0.597961 0.794353 -0.10698
vn 0.640301 0.759613 -0.114033
vn 0.718773 0.68354 -0.127037
vn 0.754906 0.642208 -0.132989
vn 0.819979 0.554081 -0.143629
vn 0.848919 0.507286 -0.148317
vn 0.898817 0.409508 -0.156303
vn 0.919775 0.358526 -0.1596
vn 0.953138 0.253765 -0.164714
vn 0.965543 0.199987 -0.16653
vn 0.98146 0.0911005 -0.168631
vn 0.984973 0.0359926 -0.168916
vn 0.983011 -0.0740496 -0.167949
vn 0.977536 -0.128984 -0.166696
vn 0.957747 -0.23718 -0.162685
vn 0.943434 -0.290442 -0.159928
vn 0.906358 -0.39384 -0.152984
vn 0.883597 -0.443977 -0.148798
vn 0.830247 -0.539758 -0.13911
vn 0.799658 -0.585402 -0.133609
vn 0.731488 -0.670952 -0.121441
vn 0.693907 -0.710858 -0.114775
vn 0.654333 -0.748486 -0.107781
vn -0.694946 0.709813 0.114959
vn -0.733456 0.668737 0.121791
vn -0.803075 0.580564 0.134222
vn -0.834183 0.533469 0.13982
vn -0.888101 0.434614 0.149623
vn -0.910911 0.382855 0.153827
vn -0.947578 0.276161 0.16072
vn -0.961435 0.221226 0.163409
vn -0.979795 0.109763 0.167193
vn -0.984299 0.0532333 0.168289
vn -0.983825 -0.0597934 0.168856
vn -0.978847 -0.116291 0.168328
vn -0.959553 -0.227629 0.165662
vn -0.945236 -0.28247 0.163525
vn -0.907675 -0.388916 0.157702
vn -0.884431 -0.440522 0.154017
vn -0.829686 -0.539015 0.145205
vn -0.798184 -0.585902 0.140078
vn -0.727828 -0.673607 0.128531
vn -0.688974 -0.714426 0.12211
vn -0.605031 -0.788821 0.108159
vn -0.559943 -0.822398 0.100629
vn -0.464829 -0.881342 0.0846758
vn -0.414804 -0.90671 0.0762529
vn -0.311255 -0.948508 0.0587565
vn -0.257732 -0.964938 0.0496831
vn -0.148727 -0.988388 0.0311469
vn -0.0932448 -0.995407 0.0216841
vn 0.0180806 -0.999833 0.00264125
vn 0.0739244 -0.99724 -0.00693876
vn 0.184368 -0.982515 -0.0259404
vn 0.238967 -0.970384 -0.035362
vn 0.345351 -0.936932 -0.0537758
vn 0.397135 -0.915611 -0.062768
vn 0.496399 -0.864395 -0.0800641
vn 0.543878 -0.834499 -0.0883682
vn 0.611577 -0.784808 -0.100249
vn 0.633218 -0.766947 -0.104058
vn 0.674926 -0.729425 -0.111418
vn 0.694993 -0.709765 -0.114968
vn 0.751718 -0.647522 -0.125041
vn 0.786654 -0.603276 -0.131279
vn 0.848645 -0.509425 -0.142436
vn 0.875702 -0.459818 -0.147355
vn 0.921158 -0.356672 -0.155732
vn 0.939558 -0.303132 -0.159191
vn 0.967171 -0.193659 -0.164549
vn 0.976384 -0.137726 -0.166448
vn 0.98536 -0.0250749 -0.168632
vn 0.985122 0.0316428 -0.168917
vn 0.975202 0.144231 -0.167864
vn 0.96552 0.200101 -0.166526
vn 0.936989 0.309387 -0.162267
vn 0.918141 0.362803 -0.159345
vn 0.871821 0.465643 -0.152001
vn 0.844349 0.515068 -0.147579
vn 0.781572 0.608503 -0.137363
vn 0.746267 0.652515 -0.131568
vn 0.668839 0.733858 -0.118773
vn 0.626716 0.77119 -0.111772
vn 0.536864 0.838101 -0.0967661
vn 0.489136 0.86768 -0.0887607
vn 0.389445 0.918233 -0.0719755
vn 0.337484 0.939208 -0.0631957
vn 0.230822 0.971949 -0.0451143
vn 0.176123 0.983717 -0.0358126
vn 0.0655591 0.997705 -0.0169552
vn 0.00969508 0.999926 -0.00739931
vn -0.10159 0.994758 0.0116917
vn -0.157011 0.987369 0.0212269
vn -0.265817 0.963193 0.0400022
vn -0.319201 0.946407 0.0492424
vn -0.422396 0.90392 0.0671619
vn -0.472208 0.878219 0.0758413
vn -0.566824 0.818642 0.0923895
vn -0.61163 0.784766 0.100258

# Mesh '<STL_BINARY>' with 468 faces
g <STL_BINARY>
usemtl DefaultMaterial
f  1//1 2//1 3//1
f  3//1 4//1 1//1
f  3//1 2//1 5//1
f  3//1 5//1 6//1
f  7//1 8//1 3//1
f  3//1 8//1 4//1
f  6//1 9//1 3//1
f  3//1 9//1 10//1
f  11//1 12//1 3//1
f  11//1 3//1 13//1
f  13//1 3//1 10//1
f  14//1 8//1 7//1
f  7//1 15//1 14//1
f  7//1 16//1 15//1
f  17//1 16//1 7//1
f  17//1 18//1 16//1
f  19//1 18//1 17//1
f  19//1 20//1 18//1
f  21//1 20//1 19//1
f  21//1 22//1 20//1
f  23//1 22//1 21//1
f  23//1 24//1 22//1
f  25//1 24//1 23//1
f  25//1 26//1 24//1
f  27//1 26//1 25//1
f  27//1 28//1 26//1
f  29//1 28//1 27//1
f  29//1 30//1 28//1
f  31//1 30//1 29//1
f  31//1 32//1 30//1
f  33//1 32//1 31//1
f  33//1 34//1 32//1
f  35//1 34//1 33//1
f  35//1 36//1 34//1
f  37//1 36//1 35//1
f  37//1 38//1 36//1
f  39//1 38//1 37//1
f  39//1 40//1 38//1
f  41//1 40//1 39//1
f  41//1 42//1 40//1
f  43//1 42//1 41//1
f  43//1 44//1 42//1
f  45//1 44//1 43//1
f  45//1 46//1 44//1
f  47//1 46//1 45//1
f  47//1 48//1 46//1
f  49//1 48//1 47//1
f  49//1 50//1 48//1
f  51//1 50//1 49//1
f  51//1 52//1 50//1
f  53//1 52//1 51//1
f  53//1 54//1 52//1
f  55//1 56//1 53//1
f  53//1 56//1 57//1
f  57//1 54//1 53//1
f  55//1 58//1 56//1
f  59//1 58//1 55//1
f  55//1 60//1 59//1
f  55//1 61//1 60//1
f  62//1 61//1 55//1
f  63//1 62//1 64//1
f  64//1 62//1 55//1
f  63//1 64//1 65//1
f  64//1 55//1 66//1
f  65//1 67//1 63//1
f  63//1 67//1 68//1
f  63//1 68//1 69//1
f  69//1 70//1 63//1
f  63//1 70//1 71//1
f  63//1 71//1 72//1
f  72//1 73//1 63//1
f  63//1 73//1 74//1
f  63//1 74//1 75//1
f  75//1 74//1 76//1
f  75//1 76//1 77//1
f  76//1 78//1 6//1
f  77//1 76//1 6//1
f  78//1 79//1 6//1
f  6//1 79//1 80//1
f  6//1 80//1 81//1
f  81//1 82//1 6//1
f  6//1 82//1 9//1
f  66//1 55//1 83//1
f  66//1 83//1 84//1
f  84//1 83//1 85//1
f  84//1 85//1 86//1
f  86//1 85//1 87//1
f  86//1 87//1 88//1
f  88//1 87//1 89//1
f  88//1 89//1 90//1
f  90//1 89//1 91//1
f  90//1 91//1 92//1
f  92//1 91//1 93//1
f  92//1 93//1 94//1
f  94//1 93//1 95//1
f  94//1 95//1 96//1
f  96//1 95//1 97//1
f  96//1 97//1 98//1
f  98//1 97//1 99//1
f  98//1 99//1 100//1
f  100//1 99//1 101//1
f  100//1 101//1 102//1
f  102//1 101//1 103//1
f  102//1 103//1 104//1
f  104//1 103//1 105//1
f  104//1 105//1 106//1
f  106//1 105//1 107//1
f  106//1 107//1 108//1
f  108//1 107//1 109//1
f  108//1 109//1 110//1
f  110//1 109//1 111//1
f  110//1 111//1 112//1
f  112//1 111//1 113//1
f  112//1 113//1 114//1
f  114//1 113//1 115//1
f  114//1 115//1 116//1
f  116//1 115//1 12//1
f  116//1 12//1 11//1
f  117//2 118//2 119//2
f  117//2 119//2 120//2
f  119//2 118//2 121//2
f  119//2 121//2 122//2
f  120//2 119//2 123//2
f  122//2 124//2 119//2
f  119//2 124//2 125//2
f  125//2 126//2 119//2
f  119//2 126//2 127//2
f  119//2 127//2 128//2
f  120//2 123//2 129//2
f  123//2 130//2 129//2
f  131//2 132//2 123//2
f  123//2 132//2 130//2
f  133//2 134//2 131//2
f  131//2 134//2 132//2
f  135//2 136//2 133//2
f  133//2 136//2 134//2
f  137//2 138//2 135//2
f  135//2 138//2 136//2
f  139//2 140//2 137//2
f  137//2 140//2 138//2
f  141//2 142//2 139//2
f  139//2 142//2 140//2
f  143//2 144//2 141//2
f  141//2 144//2 142//2
f  145//2 146//2 143//2
f  143//2 146//2 144//2
f  147//2 148//2 145//2
f  145//2 148//2 146//2
f  149//2 150//2 147//2
f  147//2 150//2 148//2
f  151//2 152//2 149//2
f  149//2 152//2 150//2
f  153//2 154//2 151//2
f  151//2 154//2 152//2
f  155//2 156//2 153//2
f  153//2 156//2 154//2
f  157//2 158//2 155//2
f  155//2 158//2 156//2
f  159//2 160//2 157//2
f  157//2 160//2 158//2
f  161//2 162//2 159//2
f  159//2 162//2 160//2
f  163//2 164//2 161//2
f  161//2 164//2 162//2
f  165//2 166//2 163//2
f  163//2 166//2 164//2
f  167//2 168//2 165//2
f  165//2 168//2 166//2
f  169//2 170//2 167//2
f  167//2 170//2 171//2
f  171//2 172//2 167//2
f  167//2 172//2 168//2
f  169//2 173//2 170//2
f  174//2 173//2 169//2
f  169//2 175//2 174//2
f  169//2 176//2 175//2
f  177//2 176//2 169//2
f  177//2 169//2 178//2
f  178//2 169//2 179//2
f  178//2 179//2 180//2
f  169//2 181//2 179//2
f  180//2 179//2 182//2
f  169//2 183//2 181//2
f  184//2 183//2 169//2
f  184//2 185//2 183//2
f  186//2 185//2 184//2
f  186//2 187//2 185//2
f  188//2 187//2 186//2
f  188//2 189//2 187//2
f  190//2 189//2 188//2
f  190//2 191//2 189//2
f  192//2 191//2 190//2
f  192//2 193//2 191//2
f  194//2 193//2 192//2
f  194//2 195//2 193//2
f  196//2 195//2 194//2
f  196//2 197//2 195//2
f  198//2 197//2 196//2
f  198//2 199//2 197//2
f  200//2 199//2 198//2
f  200//2 201//2 199//2
f  202//2 201//2 200//2
f  202//2 203//2 201//2
f  204//2 203//2 202//2
f  204//2 205//2 203//2
f  206//2 205//2 204//2
f  206//2 207//2 205//2
f  208//2 207//2 206//2
f  208//2 209//2 207//2
f  210//2 209//2 208//2
f  210//2 211//2 209//2
f  212//2 211//2 210//2
f  212//2 213//2 211//2
f  214//2 213//2 212//2
f  214//2 215//2 213//2
f  216//2 215//2 214//2
f  216//2 217//2 215//2
f  128//2 217//2 216//2
f  128//2 127//2 217//2
f  180//2 182//2 218//2
f  218//2 219//2 180//2
f  219//2 220//2 180//2
f  180//2 220//2 221//2
f  180//2 221//2 222//2
f  222//2 223//2 180//2
f  180//2 223//2 224//2
f  180//2 224//2 225//2
f  225//2 224//2 226//2
f  225//2 226//2 227//2
f  226//2 228//2 122//2
f  227//2 226//2 122//2
f  122//2 228//2 229//2
f  122//2 230//2 231//2
f  122//2 229//2 230//2
f  231//2 232//2 122//2
f  122//2 232//2 124//2
f  55//3 119//3 128//3
f  55//4 128//4 83//4
f  83//5 128//5 216//5
f  83//6 216//6 85//6
f  85//7 216//7 214//7
f  85//8 214//8 87//8
f  87//9 214//9 212//9
f  87//10 212//10 89//10
f  89//11 212//11 210//11
f  89//12 210//12 91//12
f  91//13 210//13 208//13
f  91//14 208//14 93//14
f  93//15 208//15 206//15
f  93//16 206//16 95//16
f  95//17 206//17 204//17
f  95//18 204//18 97//18
f  97//19 204//19 202//19
f  97//20 202//20 99//20
f  99//21 202//21 200//21
f  99//22 200//22 101//22
f  101//23 200//23 198//23
f  101//24 198//24 103//24
f  103//25 198//25 196//25
f  103//26 196//26 105//26
f  105//27 196//27 194//27
f  105//28 194//28 107//28
f  107//29 194//29 192//29
f  107//30 192//30 109//30
f  109//31 192//31 190//31
f  109//32 190//32 111//32
f  111//33 190//33 188//33
f  111//34 188//34 113//34
f  113//35 188//35 186//35
f  113//36 186//36 115//36
f  115//37 186//37 184//37
f  115//38 184//38 12//38
f  12//39 184//39 169//39
f  12//40 169//40 3//40
f  7//41 3//41 167//41
f  167//41 3//41 169//41
f  7//42 167//42 165//42
f  7//43 165//43 17//43
f  17//44 165//44 163//44
f  17//45 163//45 19//45
f  19//46 163//46 161//46
f  19//47 161//47 21//47
f  21//48 161//48 159//48
f  21//49 159//49 23//49
f  23//50 159//50 157//50
f  23//51 157//51 25//51
f  25//52 157//52 155//52
f  25//53 155//53 27//53
f  27//54 155//54 153//54
f  27//55 153//55 29//55
f  29//56 153//56 151//56
f  29//57 151//57 31//57
f  31//58 151//58 149//58
f  31//59 149//59 33//59
f  33//60 149//60 147//60
f  33//61 147//61 35//61
f  35//62 147//62 145//62
f  35//63 145//63 37//63
f  37//64 145//64 143//64
f  37//65 143//65 39//65
f  39//66 143//66 141//66
f  39//67 141//67 41//67
f  41//68 141//68 139//68
f  41//69 139//69 43//69
f  43//70 139//70 137//70
f  43//71 137//71 45//71
f  45//72 137//72 135//72
f  45//73 135//73 47//73
f  47//74 135//74 133//74
f  47//75 133//75 49//75
f  49//76 133//76 131//76
f  49//77 131//77 51//77
f  51//78 131//78 123//78
f  51//79 123//79 53//79
f  55//80 53//80 119//80
f  119//80 53//80 123//80
f  64//81 127//81 65//81
f  65//82 127//82 126//82
f  65//83 126//83 67//83
f  67//84 126//84 125//84
f  67//85 125//85 68//85
f  68//86 125//86 124//86
f  68//87 124//87 69//87
f  69//88 124//88 232//88
f  69//89 232//89 70//89
f  70//90 232//90 231//90
f  70//91 231//91 71//91
f  71//92 231//92 230//92
f  71//93 230//93 72//93
f  72//94 230//94 229//94
f  72//95 229//95 73//95
f  73//96 229//96 228//96
f  73//97 228//97 74//97
f  74//98 228//98 226//98
f  74//99 226//99 76//99
f  76//100 226//100 224//100
f  76//101 224//101 78//101
f  78//102 224//102 223//102
f  78//103 223//103 79//103
f  79//104 223//104 222//104
f  79//105 222//105 80//105
f  80//106 222//106 221//106
f  80//107 221//107 81//107
f  81//108 221//108 220//108
f  81//109 220//109 82//109
f  82//110 220//110 219//110
f  82//111 219//111 9//111
f  9//112 219//112 218//112
f  9//113 218//113 10//113
f  10//114 218//114 182//114
f  10//115 182//115 13//115
f  13//116 182//116 179//116
f  13//117 179//117 11//117
f  11//118 179//118 181//118
f  11//119 181//119 116//119
f  116//120 181//120 183//120
f  116//121 183//121 114//121
f  114//122 183//122 185//122
f  114//123 185//123 112//123
f  112//124 185//124 187//124
f  112//125 187//125 110//125
f  110//126 187//126 189//126
f  110//127 189//127 108//127
f  108//128 189//128 191//128
f  108//129 191//129 106//129
f  106//130 191//130 193//130
f  106//131 193//131 104//131
f  104//132 193//132 195//132
f  104//133 195//133 102//133
f  102//134 195//134 197//134
f  102//135 197//135 100//135
f  100//136 197//136 199//136
f  100//137 199//137 98//137
f  98//138 199//138 201//138
f  98//139 201//139 96//139
f  96//140 201//140 203//140
f  96//141 203//141 94//141
f  94//142 203//142 205//142
f  94//143 205//143 92//143
f  92//144 205//144 207//144
f  92//145 207//145 90//145
f  90//146 207//146 209//146
f  90//147 209//147 88//147
f  88//148 209//148 211//148
f  88//149 211//149 86//149
f  86//150 211//150 213//150
f  86//151 213//151 84//151
f  84//152 213//152 215//152
f  84//153 215//153 66//153
f  66//154 215//154 217//154
f  66//155 217//155 64//155
f  64//156 217//156 127//156
f  52//81 130//81 50//81
f  50//82 130//82 132//82
f  50//83 132//83 48//83
f  48//84 132//84 134//84
f  48//85 134//85 46//85
f  46//86 134//86 136//86
f  46//87 136//87 44//87
f  44//88 136//88 138//88
f  44//89 138//89 42//89
f  42//90 138//90 140//90
f  42//91 140//91 40//91
f  40//92 140//92 142//92
f  40//93 142//93 38//93
f  38//94 142//94 144//94
f  38//95 144//95 36//95
f  36//96 144//96 146//96
f  36//97 146//97 34//97
f  34//98 146//98 148//98
f  34//99 148//99 32//99
f  32//100 148//100 150//100
f  32//101 150//101 30//101
f  30//102 150//102 152//102
f  30//103 152//103 28//103
f  28//104 152//104 154//104
f  28//105 154//105 26//105
f  26//106 154//106 156//106
f  26//107 156//107 24//107
f  24//108 156//108 158//108
f  24//109 158//109 22//109
f  22//110 158//110 160//110
f  22//111 160//111 20//111
f  20//112 160//112 162//112
f  20//113 162//113 18//113
f  18//114 162//114 164//114
f  18//115 164//115 16//115
f  16//116 164//116 166//116
f  16//117 166//117 15//117
f  15//118 166//118 168//118
f  15//119 168//119 14//119
f  14//120 168//120 172//120
f  14//121 172//121 8//121
f  8//122 172//122 171//122
f  8//123 171//123 4//123
f  4//124 171//124 170//124
f  4//125 170//125 1//125
f  1//126 170//126 173//126
f  1//127 173//127 2//127
f  2//128 173//128 174//128
f  2//129 174//129 5//129
f  5//130 174//130 175//130
f  5//131 175//131 6//131
f  6//132 175//132 176//132
f  6//133 176//133 77//133
f  77//134 176//134 177//134
f  77//135 177//135 75//135
f  75//136 177//136 178//136
f  75//137 178//137 63//137
f  63//138 178//138 180//138
f  63//139 180//139 62//139
f  62//140 180//140 225//140
f  62//141 225//141 61//141
f  61//142 225//142 227//142
f  61//143 227//143 60//143
f  60//144 227//144 122//144
f  60//145 122//145 59//145
f  59//146 122//146 121//146
f  59//147 121//147 58//147
f  58//148 121//148 118//148
f  58//149 118//149 56//149
f  56//150 118//150 117//150
f  56//151 117//151 57//151
f  57//152 117//152 120//152
f  57//153 120//153 54//153
f  54//154 120//154 129//154
f  54//155 129//155 52//155
f  52//156 129//156 130//156

